<?xml version="1.0" standalone="no"?>
<!DOCTYPE svg PUBLIC "-//W3C//DTD SVG 20010904//EN"
 "http://www.w3.org/TR/2001/REC-SVG-20010904/DTD/svg10.dtd">
<svg version="1.0" xmlns="http://www.w3.org/2000/svg"
 width="184.000000pt" height="184.000000pt" viewBox="0 0 184.000000 184.000000"
 preserveAspectRatio="xMidYMid meet">
<metadata>
Created by potrace 1.14, written by Peter Selinger 2001-2017
</metadata>
<g transform="translate(0.000000,184.000000) scale(0.100000,-0.100000)"
fill="#000000" stroke="none">
<path d="M0 920 l0 -919 920 1 920 1 0 919 0 918 -920 0 -920 0 0 -920z m1800
880 c0 -7 -145 -10 -414 -10 -255 0 -417 -4 -421 -10 -3 -5 79 -77 182 -159
l188 -150 125 -3 125 -2 -115 -5 -115 -6 108 -84 c59 -47 107 -89 107 -93 0
-13 -11 -5 -137 94 l-111 88 -264 2 -263 2 255 6 254 5 -159 126 c-258 203
-221 185 -363 181 l-122 -3 0 -298 0 -298 38 -29 c20 -17 53 -41 72 -54 l34
-24 -37 68 c-37 67 -39 74 -58 259 -10 105 -19 192 -19 194 0 10 20 1 21 -9 0
-7 35 -96 77 -198 l78 -185 263 -3 c164 -1 268 1 276 8 7 6 15 6 21 0 5 -5 36
-11 69 -13 l60 -3 -65 -4 c-46 -3 -22 -6 80 -10 l145 -6 -142 -2 -143 -2 0
-330 c0 -287 -2 -330 -15 -330 -13 0 -15 43 -15 330 l0 330 -97 2 -98 2 100 6
c70 4 22 7 -162 8 -232 2 -263 0 -263 -13 0 -9 20 -64 45 -123 37 -89 53 -114
92 -149 30 -27 42 -43 32 -43 -9 0 -22 7 -29 15 -25 30 -28 14 -8 -38 12 -28
24 -55 28 -59 3 -4 75 -11 160 -14 85 -3 157 -8 159 -10 2 -2 -65 -5 -150 -6
-124 -1 -139 -3 -74 -7 l80 -6 -77 -9 -76 -8 18 -44 c11 -24 15 -44 11 -44 -5
0 -34 20 -64 45 -46 37 -63 45 -96 45 -33 0 -41 -4 -41 -18 0 -10 79 -91 186
-191 102 -95 183 -175 181 -177 -4 -5 -12 -2 -97 32 -156 62 -185 80 -225 138
-21 31 -40 56 -43 56 -2 0 -2 -66 2 -147 6 -174 -4 -147 -29 72 -9 82 -20 152
-25 155 -4 3 -15 19 -24 37 -20 40 -26 44 -90 53 l-51 8 49 1 c38 1 47 4 43
15 -4 11 -1 13 11 9 12 -4 11 -1 -4 10 -11 9 -34 33 -49 54 l-29 38 43 -38
c23 -21 45 -37 47 -34 2 2 -7 52 -20 112 -18 83 -21 116 -14 142 5 19 8 36 6
37 -12 7 -105 81 -113 90 -5 7 -38 34 -73 60 -34 27 -60 51 -58 54 3 2 32 -17
66 -43 34 -26 63 -45 65 -43 2 2 1 132 -2 289 l-6 287 -45 6 c-25 3 -154 6
-288 6 l-244 0 0 -840 c0 -553 -3 -840 -10 -840 -7 0 -10 290 -10 850 l0 850
880 0 c580 0 880 -3 880 -10z m-53 -782 c-1 -139 -2 -28 -2 247 0 275 1 389 2
253 2 -136 2 -361 0 -500z m-1320 289 c-1 -73 -3 -10 -3 138 0 149 2 208 3
132 2 -76 2 -198 0 -270z m-130 236 c-20 -2 -52 -2 -70 0 -17 2 0 4 38 4 39 0
53 -2 32 -4z m-38 -369 c-1 -162 -5 -297 -10 -300 -5 -3 -9 125 -9 301 0 207
3 304 10 300 7 -4 10 -109 9 -301z m-149 -444 l0 -610 358 0 357 1 -35 30
c-19 17 -84 69 -145 117 -179 141 -281 226 -263 219 16 -6 125 -90 362 -280
l109 -87 264 0 c165 0 263 -4 263 -10 0 -6 -94 -11 -247 -12 -206 -3 -244 -5
-226 -16 17 -9 118 -12 440 -10 l418 3 -147 117 c-81 65 -153 119 -160 120 -7
2 -15 8 -18 15 -5 12 -139 120 -251 204 -38 28 -69 55 -69 60 0 14 14 11 36
-9 10 -9 78 -63 149 -119 72 -57 135 -107 140 -111 118 -97 319 -252 326 -252
5 0 10 255 12 603 l2 602 3 -622 2 -623 -432 -1 c-593 0 -842 1 -847 7 -2 2
80 4 184 4 165 0 186 2 175 15 -11 13 -67 15 -396 15 l-384 0 0 620 c0 407 3
620 10 620 7 0 10 -210 10 -610z m471 353 c8 -81 -2 -484 -11 -478 -13 8 -13
515 -1 515 5 0 10 -17 12 -37z m-260 -240 l0 -118 135 -105 c75 -58 138 -109
141 -114 11 -16 -20 6 -144 106 -67 54 -124 98 -128 98 -3 0 -5 -18 -5 -40 0
-22 -4 -40 -10 -40 -5 0 -10 23 -10 51 0 47 -4 55 -37 87 l-38 34 38 -26 37
-27 0 105 c0 64 4 106 10 106 6 0 10 -46 11 -117z m289 -189 c0 -78 -3 -113
-11 -109 -15 10 -9 225 7 225 2 0 4 -52 4 -116z m-322 -226 l-2 -243 -6 225
c-5 210 -4 260 6 260 2 0 3 -109 2 -242z m1195 -168 c16 0 28 -2 25 -5 -10
-11 -538 -16 -538 -6 0 8 76 11 235 11 181 0 235 3 236 13 0 10 2 10 6 0 2 -7
19 -13 36 -13z"/>
<path d="M795 983 c4 -38 13 -102 21 -143 l13 -75 -4 60 c-3 33 -7 89 -10 125
l-6 65 40 -75 c30 -56 40 -87 41 -122 l0 -48 35 0 c19 0 35 2 35 4 0 3 -26 54
-57 113 -97 186 -119 206 -108 96z"/>
<path d="M908 743 c7 -3 16 -2 19 1 4 3 -2 6 -13 5 -11 0 -14 -3 -6 -6z"/>
<path d="M905 584 c55 -85 100 -136 135 -154 22 -11 40 -18 40 -14 0 9 -171
188 -184 193 -6 2 -2 -9 9 -25z"/>
</g>
</svg>
